<?xml version="1.0" encoding="UTF-8"?>
<svg version="1.1" viewBox="0 0 2000 2000" xmlns="http://www.w3.org/2000/svg">
 <g transform="translate(0 947.64)">
  <g fill-rule="evenodd">
   <circle transform="rotate(-90)" cx="-87.24" cy="1014.8" r="832.3" fill="#fff" stroke="#045" stroke-linecap="round" stroke-width="10"/>
   <path d="m671.69-322.22 116.46 1.2677h116.05v116.76h-232.11z" fill="#0cf" stroke="#045" stroke-linecap="round" stroke-width="10"/>
   <path d="m1075.2-328.95 116.46 1.2677h116.05v116.76h-232.11z" fill="#0cf" stroke="#045" stroke-linecap="round" stroke-width="10"/>
   <rect x="511.52" y="-274.22" width="948.31" height="617.17" ry="66.676" fill="#006680" stroke="#045" stroke-linecap="round" stroke-width="10"/>
   <rect transform="rotate(90)" x="-63.902" y="-549.77" width="158.46" height="71.721" ry="35.861" fill="#0cf" stroke="#045" stroke-linecap="round" stroke-width="10"/>
   <rect transform="rotate(90)" x="-63.902" y="-1498.1" width="158.46" height="71.721" ry="35.861" fill="#0cf" stroke="#045" stroke-linecap="round" stroke-width="10"/>
   <rect x="517.06" y="-152.03" width="939.79" height="375.47" fill="#00806c" stroke="#045" stroke-linecap="round" stroke-width="10"/>
   <ellipse cx="1240.5" cy="36.812" rx="175.32" ry="183.48" fill="#006680" stroke="#045" stroke-linecap="round" stroke-width="10"/>
   <ellipse cx="1240.5" cy="36.812" rx="95.628" ry="100.08" fill="#0cf" stroke="#045" stroke-linecap="round" stroke-width="10"/>
   <rect x="628.26" y="24.501" width="232.11" height="116.76" fill="#0cf" stroke="#045" stroke-linecap="round" stroke-width="10"/>
   <ellipse transform="scale(-1)" cx="-680.69" cy="147.99" rx="53.791" ry="56.295" fill="#0cf" stroke="#045" stroke-linecap="round" stroke-width="10"/>
   <ellipse transform="scale(-1)" cx="-1240.5" cy="-36.812" rx="53.791" ry="56.295" fill="#ececec" stroke="#045" stroke-linecap="round" stroke-width="10"/>
   <rect transform="scale(-1)" x="-1108.3" y="279.93" width="16.814" height="33.628" ry="1.7954" fill="#00806c"/>
   <rect transform="scale(-1)" x="-1169" y="279.93" width="16.814" height="33.628" ry="1.7954" fill="#00806c"/>
   <rect transform="scale(-1)" x="-1229.6" y="279.93" width="16.814" height="33.628" ry="1.7954" fill="#00806c"/>
   <rect transform="scale(-1)" x="-1290.3" y="279.74" width="16.814" height="33.628" ry="1.7954" fill="#00806c"/>
   <rect transform="scale(-1)" x="-1260" y="279.74" width="16.814" height="33.628" ry="1.7954" fill="#00806c"/>
   <rect transform="scale(-1)" x="-1199.3" y="279.74" width="16.814" height="33.628" ry="1.7954" fill="#00806c"/>
   <rect transform="scale(-1)" x="-1138.6" y="279.74" width="16.814" height="33.628" ry="1.7954" fill="#00806c"/>
  </g>
 </g>
</svg>
